<svg width="200" height="60" viewBox="0 0 200 60" fill="none" xmlns="http://www.w3.org/2000/svg">
<path d="M110.8 36V24.3636H115.391C116.27 24.3636 117.02 24.5208 117.641 24.8352C118.266 25.1458 118.742 25.5871 119.067 26.1591C119.397 26.7273 119.562 27.3958 119.562 28.1648C119.562 28.9375 119.395 29.6023 119.062 30.1591C118.728 30.7121 118.246 31.1364 117.613 31.4318C116.984 31.7273 116.223 31.875 115.329 31.875H112.255V29.8977H114.931C115.401 29.8977 115.791 29.8333 116.102 29.7045C116.412 29.5758 116.643 29.3826 116.795 29.125C116.95 28.8674 117.028 28.5473 117.028 28.1648C117.028 27.7784 116.95 27.4527 116.795 27.1875C116.643 26.9223 116.41 26.7216 116.096 26.5852C115.785 26.4451 115.393 26.375 114.92 26.375H113.261V36H110.8ZM117.085 30.7045L119.977 36H117.261L114.431 30.7045H117.085ZM123.761 24.3636V36H121.3V24.3636H123.761ZM129.91 36H125.785V24.3636H129.944C131.114 24.3636 132.122 24.5966 132.967 25.0625C133.811 25.5246 134.461 26.1894 134.915 27.0568C135.374 27.9242 135.603 28.9621 135.603 30.1705C135.603 31.3826 135.374 32.4242 134.915 33.2955C134.461 34.1667 133.808 34.8352 132.955 35.3011C132.107 35.767 131.092 36 129.91 36ZM128.245 33.892H129.808C130.535 33.892 131.147 33.7633 131.643 33.5057C132.143 33.2443 132.518 32.8409 132.768 32.2955C133.022 31.7462 133.148 31.0379 133.148 30.1705C133.148 29.3106 133.022 28.608 132.768 28.0625C132.518 27.517 132.145 27.1155 131.648 26.858C131.152 26.6004 130.54 26.4716 129.813 26.4716H128.245V33.892ZM137.425 36V24.3636H145.266V26.392H139.886V29.1648H144.863V31.1932H139.886V33.9716H145.289V36H137.425Z" fill="black"/>
<path d="M61.0348 36V24.3636H65.6257C66.5045 24.3636 67.2545 24.5208 67.8757 24.8352C68.5007 25.1458 68.9761 25.5871 69.3018 26.1591C69.6314 26.7273 69.7962 27.3958 69.7962 28.1648C69.7962 28.9375 69.6295 29.6023 69.2962 30.1591C68.9628 30.7121 68.4799 31.1364 67.8473 31.4318C67.2185 31.7273 66.4571 31.875 65.5632 31.875H62.4893V29.8977H65.1655C65.6352 29.8977 66.0253 29.8333 66.3359 29.7045C66.6465 29.5758 66.8776 29.3826 67.0291 29.125C67.1844 28.8674 67.2621 28.5473 67.2621 28.1648C67.2621 27.7784 67.1844 27.4527 67.0291 27.1875C66.8776 26.9223 66.6446 26.7216 66.3303 26.5852C66.0196 26.4451 65.6276 26.375 65.1541 26.375H63.495V36H61.0348ZM67.3189 30.7045L70.2109 36H67.495L64.6655 30.7045H67.3189ZM73.5405 36H70.9041L74.9212 24.3636H78.0916L82.103 36H79.4666L76.5518 27.0227H76.4609L73.5405 36ZM73.3757 31.4261H79.603V33.3466H73.3757V31.4261ZM83.5036 36V24.3636H88.0945C88.977 24.3636 89.7289 24.5322 90.3501 24.8693C90.9714 25.2027 91.4448 25.6667 91.7706 26.2614C92.1001 26.8523 92.2649 27.5341 92.2649 28.3068C92.2649 29.0795 92.0982 29.7614 91.7649 30.3523C91.4316 30.9432 90.9486 31.4034 90.3161 31.733C89.6873 32.0625 88.9259 32.2273 88.032 32.2273H85.1058V30.2557H87.6342C88.1077 30.2557 88.4979 30.1742 88.8047 30.0114C89.1153 29.8447 89.3464 29.6155 89.4979 29.3239C89.6532 29.0284 89.7308 28.6894 89.7308 28.3068C89.7308 27.9205 89.6532 27.5833 89.4979 27.2955C89.3464 27.0038 89.1153 26.7784 88.8047 26.6193C88.4941 26.4564 88.1001 26.375 87.6229 26.375H85.9638V36H83.5036ZM96.3232 24.3636V36H93.8629V24.3636H96.3232ZM102.472 36H98.3473V24.3636H102.506C103.677 24.3636 104.684 24.5966 105.529 25.0625C106.374 25.5246 107.023 26.1894 107.478 27.0568C107.936 27.9242 108.165 28.9621 108.165 30.1705C108.165 31.3826 107.936 32.4242 107.478 33.2955C107.023 34.1667 106.37 34.8352 105.518 35.3011C104.669 35.767 103.654 36 102.472 36ZM100.808 33.892H102.37C103.097 33.892 103.709 33.7633 104.205 33.5057C104.705 33.2443 105.08 32.8409 105.33 32.2955C105.584 31.7462 105.711 31.0379 105.711 30.1705C105.711 29.3106 105.584 28.608 105.33 28.0625C105.08 27.517 104.707 27.1155 104.211 26.858C103.715 26.6004 103.103 26.4716 102.376 26.4716H100.808V33.892Z" fill="#2D74BA"/>
<g clip-path="url(#clip0_9_70)">
<mask id="mask0_9_70" style="mask-type:luminance" maskUnits="userSpaceOnUse" x="0" y="10" width="48" height="40">
<path d="M48 10H0V50H48V10Z" fill="white"/>
</mask>
<g mask="url(#mask0_9_70)">
<path fill-rule="evenodd" clip-rule="evenodd" d="M1.81674 10.0458C1.0253 10.1754 0.406393 10.7007 0.128833 11.474L0.0238037 11.7624V30.002V48.2416L0.128833 48.5375C0.36514 49.1998 0.830254 49.6586 1.48666 49.8805L1.78673 49.9804L23.8421 49.9915C39.1157 49.9989 45.9801 49.9878 46.16 49.9619C46.9814 49.8398 47.6305 49.3071 47.8967 48.5412L47.9979 48.2416V30.002V11.7624L47.8931 11.474C47.6566 10.8079 47.2029 10.3567 46.5352 10.1273L46.2352 10.0237L24.1234 10.0199C11.7829 10.0163 1.92551 10.0272 1.81674 10.0458ZM31.2953 12.5579C33.5233 13.0205 35.2262 14.7814 35.5861 16.9938C35.6537 17.4083 35.6612 18.2332 35.6013 18.6253C35.4588 19.543 35.0798 20.4382 34.5285 21.1486C34.2698 21.4816 33.7108 22.0107 33.3658 22.2549C32.758 22.6877 32.0903 22.9762 31.3213 23.1465C30.9875 23.2204 30.83 23.2316 30.2186 23.2316C29.611 23.2316 29.446 23.2168 29.1158 23.1465C28.3507 22.9762 27.6869 22.6877 27.068 22.2549C26.5239 21.8775 25.8939 21.2005 25.5713 20.6493L25.4663 20.4754H24.3522H23.242L22.3605 19.6059L21.479 18.7363L20.8339 19.3729L20.185 20.0127L19.5398 19.3729L18.8909 18.7363L18.2458 19.3729L17.5968 20.0127L16.9517 19.3729L16.3028 18.7363L15.6201 19.4098L14.9337 20.0868L13.6771 18.8474L12.4206 17.6082V17.4045V17.201L13.4408 16.1948L14.4648 15.1847H19.9787L25.4925 15.1809L25.6876 14.8777C26.5164 13.5901 27.9456 12.7061 29.5622 12.484C29.9485 12.4321 30.8788 12.4693 31.2953 12.5579ZM29.8886 25.5772C30.4775 25.6845 30.8602 25.8732 31.2614 26.2431C31.5426 26.5058 31.7378 26.7648 31.9142 27.1163C31.9741 27.2383 32.5217 28.5629 33.1293 30.0612L34.2321 32.7879L34.4309 32.8471C34.7309 32.9433 35.2525 33.2171 35.5412 33.428C35.8675 33.6721 36.2089 34.0976 36.3927 34.4787C36.6589 35.0373 36.6514 34.9115 36.6514 39.0663V42.7845H35.5675H34.4797L34.4683 44.2533L34.4572 45.7258L34.3183 46.007C34.0521 46.5397 33.5533 46.8838 32.8744 46.9985C32.5556 47.0503 32.4954 47.0503 32.1654 46.9948C31.3102 46.8505 30.7213 46.3473 30.5225 45.5815C30.4812 45.4298 30.4587 45.0228 30.4398 44.0979L30.4138 42.8215H23.4783H16.5466L16.5428 43.1989C16.5428 43.4098 16.5278 44.0128 16.5091 44.5419C16.4866 45.3373 16.4678 45.5408 16.4078 45.711C16.1677 46.3991 15.6164 46.8505 14.8399 46.9911C13.8309 47.1724 12.8444 46.6692 12.5631 45.8257C12.4881 45.5926 12.4806 45.5001 12.4693 44.1904L12.4543 42.803L11.3853 42.7919L10.3163 42.7845L10.3276 38.9072L10.3388 35.0336L10.4439 34.7562C10.7514 33.9385 11.4228 33.2763 12.2893 32.9433C12.4543 32.8804 12.6194 32.8175 12.6606 32.8027C12.7094 32.7805 13.0432 31.9999 13.8684 29.9687C14.4948 28.4223 15.0725 27.0534 15.155 26.9165C15.6014 26.1728 16.1752 25.7622 16.9892 25.5994C17.263 25.5439 17.7056 25.5328 20.3275 25.5106C24.1534 25.481 29.5661 25.518 29.8886 25.5772Z" fill="#2D74BA"/>
<path fill-rule="evenodd" clip-rule="evenodd" d="M32.0677 16.5189C31.4345 16.7457 31.0486 17.4112 31.1647 18.0767C31.2884 18.7757 31.8279 19.2441 32.5173 19.2441C32.7533 19.2479 32.8395 19.2293 33.0418 19.1326C33.5139 18.9133 33.8099 18.482 33.8511 17.9578C33.9261 16.9614 32.9781 16.1955 32.0677 16.5189Z" fill="#2D74BA"/>
<path fill-rule="evenodd" clip-rule="evenodd" d="M17.8057 27.6541C17.6632 27.6689 17.4758 27.706 17.3933 27.7394C17.1908 27.8247 16.9434 28.0694 16.8571 28.2771C16.6996 28.6405 15.1924 32.6272 15.2074 32.6383C15.2149 32.6495 18.953 32.6643 23.5161 32.6791L31.8098 32.7051L31.6823 32.3565C31.0786 30.7136 30.2088 28.444 30.115 28.2697C29.9801 28.0212 29.7438 27.7987 29.5339 27.7245C29.4176 27.68 28.814 27.6689 26.1669 27.6615C24.3934 27.6541 21.8476 27.6467 20.5053 27.6392C19.1668 27.6355 17.9519 27.6429 17.8057 27.6541Z" fill="#2D74BA"/>
<path fill-rule="evenodd" clip-rule="evenodd" d="M14.0434 35.0722C13.3202 35.3018 12.8518 35.9462 12.8518 36.7091C12.8518 37.7646 13.7436 38.5313 14.8266 38.4016C15.3625 38.3387 15.8833 37.9646 16.1344 37.4683C16.6028 36.5276 16.1044 35.3832 15.0964 35.0722C14.8004 34.9796 14.3357 34.9832 14.0434 35.0722Z" fill="#2D74BA"/>
<path fill-rule="evenodd" clip-rule="evenodd" d="M32.0143 35.0431C31.0942 35.3474 30.5796 36.2379 30.8125 37.121C31.0191 37.9076 31.6688 38.4085 32.4838 38.416C33.3702 38.4197 34.0687 37.8371 34.219 36.9689C34.3467 36.2305 33.9448 35.4884 33.2387 35.1545C32.9758 35.0283 32.9232 35.0172 32.5589 35.006C32.2998 34.9986 32.112 35.0134 32.0143 35.0431Z" fill="#2D74BA"/>
</g>
</g>
<defs>
<clipPath id="clip0_9_70">
<rect width="48" height="40" fill="white" transform="translate(0 10)"/>
</clipPath>
</defs>
</svg>
